<svg width="17" height="13" viewBox="0 0 17 13" fill="none" xmlns="http://www.w3.org/2000/svg">
<path d="M17 2.16083C17 2.7935 16.7174 3.35539 16.2917 3.74972V13H2.84467V10.1111H0C0.604917 9.14837 0.719667 7.99353 0.719667 6.17063V2.42733C0.719667 0.938097 1.65608 0.049758 2.81137 0.0158134C2.79933 -0.00657563 14.8502 0.00136886 14.875 0.00136886C16.0487 0.00136886 17 0.964097 17 2.16083ZM3.58487 2.17599C3.58487 1.77805 3.26754 1.45377 2.87654 1.45377C2.34742 1.45377 2.125 1.88638 2.125 2.42733V6.17063C2.125 7.31391 2.125 7.9343 1.96279 8.66809H2.84396V2.89822C3.23496 2.89822 3.58487 2.57394 3.58487 2.17599ZM14.8863 4.33328H4.25V11.557H14.8863V4.33328ZM14.875 1.44438H4.8705C5.05112 1.94921 5.03908 2.41144 4.86979 2.89027H14.875C15.798 2.89027 15.8277 1.44438 14.875 1.44438ZM7.31992 10.1111C8.24571 8.4182 8.88817 7.54864 9.7665 6.76719L9.65246 6.49996C8.58783 7.17524 8.01479 7.68441 7.1485 8.68686C6.68737 8.35175 6.42742 8.19719 6.01729 7.99497L5.66667 8.32575C6.36862 8.98875 6.749 9.4257 7.31992 10.1111ZM13.4583 6.49996H10.625V7.22219H13.4583V6.49996ZM13.4583 7.94442H10.625V8.66664H13.4583V7.94442ZM13.4583 9.38887H10.625V10.1111H13.4583V9.38887Z" fill="#D0CBF0"/>
</svg>
