<svg width="18" height="18" viewBox="0 0 18 18" fill="none" xmlns="http://www.w3.org/2000/svg">
<path d="M9 0C4.02975 0 0 4.02975 0 9C0 13.9703 4.02975 18 9 18C13.9703 18 18 13.9703 18 9C18 4.02975 13.9703 0 9 0ZM9 13.6875C8.4825 13.6875 8.0625 13.2675 8.0625 12.75C8.0625 12.2325 8.4825 11.8125 9 11.8125C9.51825 11.8125 9.9375 12.2325 9.9375 12.75C9.9375 13.2675 9.51825 13.6875 9 13.6875ZM10.4708 9.2415C9.79275 9.97275 9.7605 10.377 9.7695 10.875H8.26575C8.2605 9.76875 8.28075 9.28125 9.339 8.274C9.76875 7.866 10.1077 7.54275 10.0605 6.90825C10.017 6.3045 9.513 5.98875 9.03675 5.98875C8.505 5.98875 7.88325 6.384 7.88325 7.4985H6.37575C6.37575 5.6985 7.4325 4.536 9.06825 4.536C9.84525 4.536 10.5247 4.79025 10.9808 5.25225C11.4082 5.68575 11.6295 6.28125 11.6213 6.97575C11.6093 8.013 10.9785 8.694 10.4708 9.2415Z" fill="#D0CBF0"/>
</svg>
