<svg width="89" height="23" viewBox="0 0 89 23" fill="none" xmlns="http://www.w3.org/2000/svg">
<path d="M41.386 4.4H43.69V17H41.386V4.4ZM54.086 3.5V17H51.98L51.944 16.424C51.596 16.676 51.23 16.868 50.846 17C50.474 17.12 50.03 17.18 49.514 17.18C48.638 17.18 47.882 16.97 47.246 16.55C46.622 16.13 46.148 15.566 45.824 14.858C45.5 14.15 45.338 13.37 45.338 12.518C45.338 11.666 45.5 10.886 45.824 10.178C46.148 9.47 46.622 8.906 47.246 8.486C47.882 8.066 48.638 7.856 49.514 7.856C50.39 7.856 51.17 8.096 51.854 8.576V3.5H54.086ZM49.838 15.344C50.546 15.344 51.074 15.092 51.422 14.588C51.782 14.084 51.962 13.394 51.962 12.518C51.962 11.642 51.782 10.952 51.422 10.448C51.074 9.944 50.546 9.692 49.838 9.692C49.142 9.692 48.596 9.95 48.2 10.466C47.816 10.982 47.624 11.666 47.624 12.518C47.624 13.37 47.816 14.054 48.2 14.57C48.596 15.086 49.142 15.344 49.838 15.344ZM60.4992 17.18C59.4552 17.18 58.5612 16.97 57.8172 16.55C57.0852 16.118 56.5332 15.548 56.1612 14.84C55.8012 14.12 55.6212 13.322 55.6212 12.446C55.6212 11.606 55.7952 10.838 56.1432 10.142C56.4912 9.446 56.9952 8.894 57.6552 8.486C58.3152 8.066 59.1012 7.856 60.0132 7.856C60.8532 7.856 61.5612 8.03 62.1372 8.378C62.7252 8.726 63.1632 9.194 63.4512 9.782C63.7512 10.37 63.9012 11.03 63.9012 11.762C63.9012 12.122 63.8532 12.53 63.7572 12.986H57.9432C58.0632 13.778 58.3752 14.372 58.8792 14.768C59.3832 15.152 59.9892 15.344 60.6972 15.344C61.6692 15.344 62.5692 15.098 63.3972 14.606L63.5052 16.496C63.1212 16.7 62.6712 16.868 62.1552 17C61.6512 17.12 61.0992 17.18 60.4992 17.18ZM61.6332 11.474C61.6332 11.006 61.5012 10.592 61.2372 10.232C60.9732 9.872 60.5652 9.692 60.0132 9.692C59.4612 9.692 59.0172 9.854 58.6812 10.178C58.3452 10.502 58.1172 10.934 57.9972 11.474H61.6332ZM67.3689 17.18C66.6249 17.18 66.0009 16.94 65.4969 16.46C65.0049 15.968 64.7589 15.308 64.7589 14.48C64.7589 13.7 65.0409 13.076 65.6049 12.608C66.1689 12.128 66.8349 11.792 67.6029 11.6C68.3709 11.396 69.1089 11.282 69.8169 11.258C69.7929 10.73 69.6549 10.352 69.4029 10.124C69.1629 9.896 68.7609 9.782 68.1969 9.782C67.8009 9.782 67.4109 9.836 67.0269 9.944C66.6549 10.052 66.2229 10.226 65.7309 10.466L65.5329 8.648C66.6249 8.12 67.7169 7.856 68.8089 7.856C69.8649 7.856 70.6689 8.144 71.2209 8.72C71.7849 9.296 72.0669 10.214 72.0669 11.474V13.904C72.0669 14.36 72.0849 14.69 72.1209 14.894C72.1689 15.086 72.2409 15.212 72.3369 15.272C72.4449 15.32 72.6189 15.344 72.8589 15.344H73.1469L72.9489 17.18H72.1389C71.6469 17.18 71.2329 17.09 70.8969 16.91C70.5609 16.718 70.3029 16.46 70.1229 16.136C69.8349 16.46 69.4389 16.718 68.9349 16.91C68.4429 17.09 67.9209 17.18 67.3689 17.18ZM68.3049 15.47C68.5329 15.47 68.7909 15.416 69.0789 15.308C69.3669 15.188 69.6189 15.026 69.8349 14.822V12.77C69.1149 12.806 68.4789 12.962 67.9269 13.238C67.3749 13.514 67.0989 13.898 67.0989 14.39C67.0989 14.762 67.1949 15.038 67.3869 15.218C67.5789 15.386 67.8849 15.47 68.3049 15.47ZM77.1831 17.18C76.3911 17.18 75.7911 16.952 75.3831 16.496C74.9751 16.028 74.7711 15.47 74.7711 14.822V9.836H73.4931L73.6911 8H74.7711V6.02L77.0031 5.786V8H78.9831V9.836H77.0031V13.904C77.0031 14.384 77.0271 14.72 77.0751 14.912C77.1351 15.092 77.2491 15.212 77.4171 15.272C77.5971 15.32 77.9151 15.344 78.3711 15.344H78.9831L78.7851 17.18H77.1831ZM84.7746 17.18C83.7306 17.18 82.8366 16.97 82.0926 16.55C81.3606 16.118 80.8086 15.548 80.4366 14.84C80.0766 14.12 79.8966 13.322 79.8966 12.446C79.8966 11.606 80.0706 10.838 80.4186 10.142C80.7666 9.446 81.2706 8.894 81.9306 8.486C82.5906 8.066 83.3766 7.856 84.2886 7.856C85.1286 7.856 85.8366 8.03 86.4126 8.378C87.0006 8.726 87.4386 9.194 87.7266 9.782C88.0266 10.37 88.1766 11.03 88.1766 11.762C88.1766 12.122 88.1286 12.53 88.0326 12.986H82.2186C82.3386 13.778 82.6506 14.372 83.1546 14.768C83.6586 15.152 84.2646 15.344 84.9726 15.344C85.9446 15.344 86.8446 15.098 87.6726 14.606L87.7806 16.496C87.3966 16.7 86.9466 16.868 86.4306 17C85.9266 17.12 85.3746 17.18 84.7746 17.18ZM85.9086 11.474C85.9086 11.006 85.7766 10.592 85.5126 10.232C85.2486 9.872 84.8406 9.692 84.2886 9.692C83.7366 9.692 83.2926 9.854 82.9566 10.178C82.6206 10.502 82.3926 10.934 82.2726 11.474H85.9086Z" fill="#4A35C9"/>
<rect width="24" height="23" rx="5" fill="#F1F0FA"/>
<path fill-rule="evenodd" clip-rule="evenodd" d="M15.6908 6.24875L16.7197 5.21975C16.5787 4.92575 16.5 4.59725 16.5 4.25C16.5 3.008 17.508 2 18.75 2C19.992 2 21 3.008 21 4.25C21 5.492 19.992 6.5 18.75 6.5C18.4028 6.5 18.0743 6.42125 17.7803 6.28025L16.755 7.3055C17.553 8.324 18.0285 9.60725 18.0285 11C18.0285 12.3927 17.553 13.676 16.755 14.6945L17.7803 15.7197C18.0743 15.5787 18.4028 15.5 18.75 15.5C19.992 15.5 21 16.508 21 17.75C21 18.992 19.992 20 18.75 20C17.508 20 16.5 18.992 16.5 17.75C16.5 17.4028 16.5787 17.0743 16.7197 16.7803L15.6908 15.7512C14.6775 16.5342 13.407 17 12.0285 17C10.6358 17 9.3525 16.5245 8.334 15.7265L7.28025 16.7803C7.42125 17.0743 7.5 17.4028 7.5 17.75C7.5 18.992 6.492 20 5.25 20C4.008 20 3 18.992 3 17.75C3 16.508 4.008 15.5 5.25 15.5C5.59725 15.5 5.92575 15.5787 6.21975 15.7197L7.27725 14.6622C6.49425 13.649 6.0285 12.3785 6.0285 11C6.0285 9.6215 6.49425 8.351 7.27725 7.33775L6.21975 6.28025C5.92575 6.42125 5.59725 6.5 5.25 6.5C4.008 6.5 3 5.492 3 4.25C3 3.008 4.008 2 5.25 2C6.492 2 7.5 3.008 7.5 4.25C7.5 4.59725 7.42125 4.92575 7.28025 5.21975L8.334 6.2735C9.3525 5.4755 10.6358 5 12.0285 5C13.407 5 14.6775 5.46575 15.6908 6.24875ZM12.141 8.3585C12.0825 8.1815 12.2153 8 12.399 8C12.513 8 12.6195 8.072 12.657 8.18675L14.2582 12.2045C14.3055 12.3477 14.2283 12.5022 14.0858 12.5495C13.9432 12.5968 13.7887 12.5195 13.7415 12.377C13.7415 12.377 12.7305 12.0387 11.532 12.4362L12.3202 13.661C12.402 13.781 12.345 13.9453 12.2085 13.9903L11.673 14.1688L11.5605 14.1875C11.46 14.1875 11.3625 14.1448 11.2928 14.0668L10.2105 12.872C9.621 13.058 8.9535 12.8435 8.73075 12.2885C8.67975 12.161 8.6535 12.0253 8.6535 11.8888C8.6535 11.4928 8.87475 11.0893 9.354 10.8538C11.7563 9.674 12.141 8.3585 12.141 8.3585ZM13.8472 8.61575C14.274 8.79575 14.6318 9.14 14.82 9.60425C15.0083 10.0685 14.9902 10.5665 14.8102 10.994L15.225 11.1702C15.3412 10.8927 15.4035 10.5927 15.4035 10.2867C15.4035 9.39575 14.877 8.56175 14.022 8.20025L13.8472 8.61575ZM13.548 9.32525C13.7933 9.42875 14.0002 9.62675 14.1082 9.8945C14.2162 10.1622 14.2065 10.448 14.103 10.694L14.5072 10.8658C14.6543 10.5155 14.6692 10.109 14.5147 9.72875C14.361 9.3485 14.0685 9.06725 13.719 8.9195L13.548 9.32525Z" fill="#4A35C9"/>
</svg>
