<svg width="18" height="18" viewBox="0 0 18 18" fill="none" xmlns="http://www.w3.org/2000/svg">
<path d="M14.25 1.5C15.4905 1.5 16.5 2.5095 16.5 3.75V14.25C16.5 15.4905 15.4905 16.5 14.25 16.5H3.75C2.5095 16.5 1.5 15.4905 1.5 14.25V3.75C1.5 2.5095 2.5095 1.5 3.75 1.5H14.25ZM18 3.75C18 1.67925 16.3215 0 14.25 0H3.75C1.6785 0 0 1.67925 0 3.75V14.25C0 16.3207 1.6785 18 3.75 18H14.25C16.3215 18 18 16.3207 18 14.25V3.75ZM8.25 12.75H6.75V15H5.25V12.75H3.75V10.5H8.25V12.75ZM6.75 3H5.25V9H6.75V3ZM14.25 6.75H9.75V9H11.25V15H12.75V9H14.25V6.75ZM12.75 3H11.25V5.25H12.75V3Z" fill="#D0CBF0"/>
</svg>
